<?xml version="1.0" encoding="utf-8"?>
<!-- Uploaded to: SVG Repo, www.svgrepo.com, Generator: SVG Repo Mixer Tools -->
<svg width="800px" height="800px" viewBox="0 -6.3 90.32503 90.32503" xmlns="http://www.w3.org/2000/svg">
<title>Asset 27</title>
<g id="Layer_2" data-name="Layer 2">
<g id="Layer_1-2" data-name="Layer 1">
<g id="Tinder_Icon" data-name="Tinder Icon">
<path id="Fire_Logo" data-name="Fire Logo" d="M43.42268,69.02126C.72742,65.60553,12.28939,34.2735,23.40726,19.03451a15.20538,15.20538,0,0,0,5.365,9.678C42.15352,24.98686,41.9078,8.01847,40.11206,0,70.57461,5.12681,96.79166,73.29081,43.42268,69.02126Z" style="fill:#fcbb6a"/>
<path id="Heart_button" data-name="Heart button" d="M72.74075,77.71544l-2.45991-2.44682c-9.13715-8.03984-15.1114-13.458-15.10916-20.09957a9.50724,9.50724,0,0,1,9.6704-9.61281,10.58342,10.58342,0,0,1,7.90828,3.67036,10.59111,10.59111,0,0,1,7.91073-3.67036A9.49953,9.49953,0,0,1,90.325,55.16905c-.00224,6.6416-5.98014,12.05973-15.12271,20.09957Z" style="fill:#83ebc5"/>
<g id="Cross_button" data-name="Cross button">
<path id="Cross_2" data-name="Cross 2" d="M22.35141,48.04131a4.5342,4.5342,0,0,1,6.41653,6.40813L7.74544,75.4444a4.5342,4.5342,0,0,1-6.41653-6.40813Z" style="fill:#ff7878"/>
<path id="Cross_1" data-name="Cross 1" d="M28.768,69.03572a4.5342,4.5342,0,0,1-6.41654,6.40812L1.329,54.44888a4.5342,4.5342,0,0,1,6.41653-6.40812Z" style="fill:#ff7878"/>
</g>
</g>
</g>
</g>
</svg>